<svg
  width="339"
  height="381"
  viewBox="0 0 339 381"
  fill="none"
  xmlns="http://www.w3.org/2000/svg"
>
  <path
    initial="hidden"
    animate="visible"
    fillRule="evenodd"
    clipRule="evenodd"
    d="M329.781 213.685L328.947 218.336C329.152 218.291 328.749 218.4 328.947 218.336C328.685 221.107 327.773 224.048 327.425 226.825L322.255 255.658C321.363 260.759 323.095 265.886 322.255 271L319.676 275.5V280.5C318.188 287.893 319.831 294.018 317 300.5C319.331 300.5 314.009 302.557 314.117 302.872L314.02 303.285L313.951 303.56L313.882 303.832C312.881 307.684 311.138 311.419 307.032 312.552C303.935 313.407 300.536 313.484 297.338 313.821L296.983 313.86L241.018 320.158C234.255 320.919 227.496 321.702 220.737 322.494L214.879 323.182C206.712 324.128 198.499 324.873 190.453 326.585C190.157 326.649 189.912 326.767 189.713 326.922C191.333 320.785 192.884 314.657 194.289 308.457C195.871 301.48 197.373 294.49 199.065 287.538C202.475 273.533 206.296 259.621 210.48 245.827C211.358 242.932 212.256 240.043 213.174 237.16L213.818 235.145L214.314 233.539C215.081 231.092 216.03 228.575 218.28 227.224C220.912 225.644 224.502 225.382 227.488 224.835L229.51 224.455C232.535 223.89 235.564 223.348 238.597 222.825C253.116 220.327 267.718 218.322 282.373 216.817C297.624 215.249 312.927 214.231 328.248 213.733L329.781 213.685ZM190.872 309.822L191.015 309.834L188.925 326.555C188.591 326.321 188.166 326.178 187.648 326.179C180.791 326.199 174.218 324.007 167.86 321.596L166.892 321.227L164.192 320.189C161.448 319.137 158.69 318.108 155.88 317.255L154.744 316.911L154.167 316.741C152.039 316.12 149.802 315.555 147.588 315.414L147.287 315.398L147.931 315.059C148.025 315.01 148.108 314.954 148.181 314.895C149.4 314.984 150.62 314.96 151.905 314.728C154.321 314.293 156.671 313.452 158.829 312.281L159.792 311.758L160.186 311.549L160.447 311.414L160.706 311.283C162.559 310.359 164.331 309.78 166.671 310.272C169.327 310.831 171.654 312.263 174.048 313.474L174.474 313.686L174.759 313.824L175.05 313.961L175.345 314.095C178.583 315.553 183.736 317.127 184.977 312.722C185.476 310.952 185.085 309.295 184.219 307.842C185.833 307.702 188.713 309.605 190.872 309.822Z"
    fill="#2B2E4A"
  />
  <path
    initial="hidden"
    animate="visible"
    fillRule="evenodd"
    clipRule="evenodd"
    d="M123.552 142.559C124.959 139.019 129.719 140.395 129.188 144.114C128.871 146.343 127.652 148.695 126.556 150.648C125.664 152.238 124.646 153.789 123.267 154.98C125.723 157.273 128.272 159.481 130.885 161.578C133.737 163.866 136.736 165.976 139.835 167.914C142.553 169.614 145.394 171.119 147.956 173.06C150.338 174.863 152.508 177.031 153.612 179.863C154.789 182.878 154.278 185.991 153.411 189.004L153.312 189.345C152.427 192.329 150.895 195.928 153.019 198.74C154.101 200.172 155.673 201.186 157.031 202.33C158.237 203.348 159.37 204.454 160.408 205.642C162.673 208.233 164.515 211.148 165.677 214.395L165.781 214.691C166.777 217.566 167.505 221.088 166.159 223.911C165.773 224.72 164.527 224.457 164.311 223.669C163.822 221.885 163.848 220.015 163.438 218.204C163.011 216.322 162.301 214.535 161.373 212.844C159.579 209.574 157.149 206.78 154.277 204.418L153.417 203.718C151.178 201.879 149.12 199.928 148.665 196.884C148.179 193.627 149.483 190.525 150.321 187.442C150.905 185.294 151.097 183.234 150.465 181.293C149.693 182.553 148.641 183.749 147.809 184.816C146.15 186.941 144.476 189.054 142.807 191.17C141.096 193.34 139.426 195.545 137.836 197.806C137.125 198.818 136.422 199.836 135.72 200.854C135.193 201.62 134.458 202.384 133.883 203.166C134.023 203.583 134.012 204.064 133.759 204.407C130.712 208.527 126.375 199.93 125.244 197.758C122.941 193.333 121.227 188.635 118.917 184.212C116.523 179.627 113.796 175.165 110.758 170.979C108.92 168.447 106.86 166.069 105.179 163.457C101.218 167.051 96.005 169.461 91.218 171.645C85.958 174.045 80.492 176.006 75.099 178.088L73.506 178.707C64.213 182.336 54.694 186.322 46.97 192.768C37.8927 200.343 32.5233 210.9 28.5255 221.832C23.9239 234.418 20.1168 247.343 16.5681 260.26C14.752 266.869 13.0288 273.508 11.4088 280.168C9.98133 286.036 8.79804 291.962 7.14554 297.769C10.4969 297.65 14.3193 298.949 17.1806 299.323C30.221 301.032 43.0861 303.754 55.398 308.468C56.919 309.05 57.359 310.57 57.028 311.802C57.904 311.554 58.781 311.304 59.658 311.057C58.697 309.584 59.155 306.95 59.231 305.317L59.236 305.205C59.314 303.029 59.549 300.851 59.702 298.68C59.994 294.539 60.373 290.429 60.877 286.313L61.006 285.283C61.577 280.806 61.999 276.3 62.623 271.83L62.697 271.318C62.398 270.175 62.05 269.045 61.684 267.92C60.711 264.923 59.336 262.102 58.133 259.2C57.991 258.859 58.477 258.662 58.704 258.867C60.743 260.703 62.364 263.032 63.665 265.468C63.688 265.353 63.708 265.237 63.731 265.122L63.88 264.392C64.246 262.608 64.691 260.731 65.785 259.284C65.902 259.131 66.131 259.098 66.242 259.284C67.289 261.056 67.406 263.301 67.566 265.317C67.749 267.598 67.772 269.908 67.739 272.195C67.677 276.665 67.362 281.148 67.11 285.611C66.865 289.996 66.382 294.326 65.759 298.668L65.64 299.483C65.335 301.55 65.087 303.643 64.685 305.695L64.571 306.254C64.357 307.272 64.224 308.708 63.797 309.9C74.793 306.831 85.807 303.832 96.84 300.886C104.815 298.756 112.798 296.658 120.778 294.547C121.199 293.788 121.724 293.079 122.378 292.445C124.534 290.356 127.39 289.424 130.011 291.032C130.224 291.163 130.242 291.497 130.011 291.623C129.509 291.898 129.006 292.18 128.512 292.474L133.303 291.175C136.885 290.203 140.509 288.99 144.175 288.313C150.927 284.979 158.188 282.566 165.3 280.181L166.139 279.897C169.78 278.655 173.547 277.264 177.31 276.575C180.064 276.071 183.298 276.68 184.405 279.503C185.808 280.428 187.127 281.515 188.4 282.584C189.321 283.356 190.203 284.177 191.1 284.976L191.265 285.121C191.999 285.759 192.58 286.185 192.761 287.199C192.853 287.722 192.521 288.43 191.876 288.361C189.9 288.149 188.295 285.859 186.955 284.492C185.921 283.434 184.878 282.341 183.934 281.179C183.383 281.479 182.628 281.425 182.278 280.761C180.461 277.318 175.483 279.704 172.729 280.521L168.784 281.689C166.811 282.274 164.839 282.862 162.871 283.46C157.461 285.104 152.077 286.944 146.618 288.454C147.106 288.991 147.039 289.946 146.112 290.31C141.838 291.988 137.15 292.855 132.71 294.006C129.908 294.734 127.106 295.466 124.306 296.202C123.825 296.98 123.48 297.86 123.335 298.886C122.801 302.654 123.831 307.003 124.835 310.648L124.987 311.192C125.812 314.122 127.026 317.714 129.553 319.565C130.17 320.016 130.955 320.33 131.747 320.402C136.694 317.854 141.64 315.306 146.589 312.764C147.506 312.293 148.353 312.931 148.559 313.689C150.304 313.402 152.045 312.951 153.631 312.412C156.295 311.507 158.376 309.78 160.874 308.585C165.707 306.275 170.643 309.113 174.971 311.27L175.968 311.761C177.908 312.703 181.946 314.513 182.877 311.936C183.778 309.444 180.931 306.779 179.092 305.657C176.899 304.32 174.347 303.604 171.87 303.008C170.455 302.667 169.023 302.389 167.583 302.186C165.949 301.956 164.261 301.991 162.688 301.46C161.906 301.197 161.786 299.955 162.688 299.75C165.11 299.198 168 299.8 170.527 300.414L171.848 300.74C174.394 301.365 176.965 302.15 179.284 303.397C180.97 304.304 182.75 305.682 183.912 307.369C184.923 306.43 186.179 306.462 187.488 306.81L188.199 307.008C189.372 307.333 190.323 307.557 191.465 307.332C191.617 306.5 191.772 305.669 191.938 304.838C193.565 296.665 195.349 288.524 197.318 280.426C200.714 266.459 204.643 252.644 209.073 238.971L209.518 237.604C210.539 234.477 211.362 231.069 213.009 228.197C214.567 225.48 217.063 223.915 220.028 223.086C223.394 222.146 226.93 221.654 230.363 221.018C231.129 220.877 231.897 220.743 232.664 220.604C232.016 219.433 231.532 218.105 231.097 217.086L231.02 216.909C230.084 214.774 229.244 212.601 228.432 210.417L227.825 208.774C226.36 204.819 224.847 200.93 222.786 197.231C220.618 193.339 217.741 190.156 214.154 187.522C206.841 182.151 198.026 179.411 190.933 173.672C190.643 173.437 191.016 173.035 191.31 173.183C196.099 175.591 201.27 177.228 206.252 179.189L207.234 179.576C211.171 181.138 215.17 182.839 218.578 185.367C222.377 188.187 225.37 191.689 227.619 195.852C229.836 199.957 231.254 204.551 232.817 208.935L233.236 210.103C233.867 211.855 234.518 213.601 235.265 215.306C235.857 216.66 236.963 218.204 237.466 219.751C238.841 219.511 240.217 219.272 241.593 219.042C271.413 214.06 301.567 211.133 331.788 210.277C332.97 210.243 333.581 211.372 333.407 212.404C330.507 229.564 327.93 246.782 325.102 263.955C323.868 271.45 322.609 278.939 321.32 286.424C320.667 290.217 319.913 293.995 319.294 297.793C318.796 300.86 318.433 303.951 317.577 306.947C316.808 309.634 315.629 312.224 313.691 314.274C311.603 316.483 308.689 317.553 305.756 318.058C298.31 319.34 290.672 319.864 283.165 320.718L243.197 325.268C243.782 330.58 243.825 335.809 243.557 341.184L243.404 344.117C243.279 346.476 243.13 348.84 242.791 351.175C242.366 354.105 241.027 356.585 239.055 358.773C237.243 360.783 235.042 362.497 232.902 364.14C230.68 365.846 228.384 367.492 225.772 368.547L225.432 368.682C223.14 369.577 218.841 370.964 215.709 370.457C216.118 372.51 216.91 374.717 216.208 376.749C215.882 377.692 214.649 378.162 213.894 377.36C212.398 375.769 212.281 373.668 211.927 371.593C211.558 369.433 211.24 367.266 210.958 365.094C210.411 360.893 209.987 356.655 209.857 352.418C209.724 348.068 209.774 343.712 210.009 339.366C210.129 337.134 210.279 334.905 210.562 332.687C210.683 331.742 210.806 330.795 210.947 329.852C210.999 329.508 211.056 329.166 211.117 328.824L207.53 329.229C202.029 329.843 196.526 330.398 190.986 330.484C190.33 330.495 189.826 330.196 189.496 329.76C189.144 330.333 188.532 330.743 187.656 330.74C179.921 330.71 172.716 328.179 165.68 325.197C162.134 323.693 158.642 322.064 155.09 320.573C151.775 319.181 148.23 318.188 144.995 316.62L136.494 321.082C136.431 321.302 136.352 321.509 136.267 321.682C135.713 322.813 134.622 323.427 133.507 323.889C132.437 324.333 131.329 324.471 130.25 324.359C123.803 327.74 117.353 331.117 110.9 334.486L104.445 337.853C91.585 344.554 78.776 351.363 65.835 357.905L64.881 358.386C60.411 360.629 55.612 362.902 50.651 364.598C50.563 365.854 50.619 367.076 50.724 368.406L50.749 368.696C50.897 370.267 51.214 372.236 49.955 373.355C49.299 373.937 48.128 373.939 47.683 373.062C46.874 371.471 47.6 368.964 47.856 367.235C47.947 366.62 48.058 365.989 48.221 365.375C42.5347 367.07 36.6757 367.891 30.8888 366.94C25.2543 366.015 20.8906 362.463 17.3724 358.118C13.6596 353.534 11.0212 348.192 9.60563 342.465C7.99473 335.948 7.88953 329.217 7.92733 322.542C7.96743 315.433 8.23033 308.29 9.09433 301.229C8.14763 301.006 7.09773 300.813 6.14103 300.881C5.66723 301.639 4.74813 301.958 3.91753 301.859C2.11143 303.853 6.69264 305.889 8.15664 306.4C8.66494 306.577 8.61054 307.403 8.02424 307.378L7.65484 307.361C5.39264 307.24 3.05553 306.854 1.72543 304.751C0.659634 303.065 0.979836 301.067 2.25044 299.692C3.08964 291.752 5.09584 284.021 6.96304 276.276C8.79534 268.674 10.8331 261.122 12.9929 253.607L13.9613 250.243C17.3619 238.46 20.9164 226.582 25.6077 215.267C27.9497 209.617 30.6481 204.071 34.3057 199.145C37.7153 194.553 41.741 190.623 46.368 187.267C54.993 181.009 65.115 177.228 75.06 173.626L75.505 173.466C80.659 171.6 85.8 169.712 90.895 167.691C95.401 165.904 99.717 163.638 104.202 161.823C104.057 161.559 103.916 161.292 103.781 161.02L103.697 161.09C103.683 161.101 103.669 161.113 103.654 161.123C103.203 161.436 102.539 161.282 102.167 160.931C101.118 159.941 101.473 158.841 102.173 157.813L102.265 157.682C103.122 156.481 103.886 155.211 104.677 153.967L105.171 153.189C106.499 151.11 107.894 149.017 109.663 147.299C110.483 146.503 111.38 145.907 112.331 145.463C112.25 145.291 112.962 144.939 113.165 145.116C116.177 144.013 119.641 144.244 122.926 144.548L123.552 142.559ZM241.263 325.488L237.075 325.964C232.468 326.489 227.86 326.996 223.25 327.498L213.238 328.587C213.213 329.158 213.143 329.717 213.13 330.148C213.065 332.371 213.016 334.596 212.97 336.821C212.878 341.279 212.979 345.742 213.272 350.192C213.557 354.503 213.931 358.816 214.513 363.099L214.632 363.955L214.701 364.405C215.176 364.45 215.642 364.676 216.03 365.14C216.878 366.152 219.943 365.168 221.141 364.742C223.111 364.041 224.965 362.856 226.676 361.668C228.348 360.508 229.853 359.155 231.299 357.731L232.482 356.56C233.659 355.389 234.837 354.143 235.558 352.671C236.536 350.675 236.662 348.224 236.949 346.05C237.302 343.376 237.722 340.702 238.167 338.041L241.263 325.488ZM119.697 297.418L119.262 297.532C103.484 301.727 87.728 306.046 71.901 310.056C64.069 312.041 56.199 313.881 48.357 315.828L47.088 316.145C40.901 317.71 34.64 319.593 29.9022 324.083C29.7278 324.248 29.4737 323.995 29.6379 323.819C34.7438 318.38 42.0061 316.078 48.978 314.082C50.267 313.713 51.557 313.353 52.847 312.986C43.3644 309.603 33.7322 306.661 23.8783 304.562C21.3405 304.021 18.7736 303.625 16.238 303.082C14.4698 302.704 12.7428 302.156 10.9933 301.703L9.61713 301.356L9.59884 305.708C9.57594 311.872 9.58693 318.031 9.90113 324.194L9.96074 325.336C10.3273 332.195 10.8997 339.196 13.3322 345.664C15.3089 350.919 18.4596 355.869 22.5803 359.698C24.6646 361.634 26.9065 363.142 29.677 363.887C32.2494 364.578 34.9455 364.659 37.5901 364.475C50.276 363.589 61.567 356.694 72.587 350.985C90.611 341.647 108.637 332.314 126.678 323.012C126.191 322.678 125.732 322.294 125.314 321.862C122.894 319.362 121.618 315.939 120.78 312.625C119.888 309.097 119.354 305.315 119.292 301.673L119.697 297.418ZM142.653 326.617C142.812 326.531 142.997 326.638 143.005 326.818C143.06 328.197 142.299 329.557 141.729 330.8L141.669 330.932C140.978 332.47 140.222 333.988 139.438 335.483C137.874 338.468 136.248 341.421 134.551 344.333C131.139 350.19 127.346 355.801 122.864 360.901C121.852 362.053 120.186 360.576 120.836 359.335C123.968 353.355 127.62 347.709 131.379 342.112C133.261 339.31 135.142 336.505 137.042 333.715C137.835 332.551 138.638 331.391 139.463 330.249L139.96 329.566L142.653 326.617ZM329.789 213.702C313.956 214.18 298.141 215.214 282.382 216.833C267.726 218.339 253.124 220.343 238.605 222.842C235.572 223.364 232.544 223.907 229.518 224.472L227.704 224.813C224.678 225.387 220.982 225.624 218.288 227.241C215.448 228.946 214.681 232.51 213.735 235.448C212.624 238.903 211.542 242.369 210.489 245.843C206.305 259.637 202.483 273.55 199.074 287.554C197.381 294.507 195.88 301.497 194.298 308.474C192.892 314.673 191.341 320.802 189.721 326.938C189.921 326.783 190.165 326.665 190.461 326.602C198.507 324.889 206.721 324.144 214.887 323.198L215.677 323.106C224.125 322.112 232.573 321.125 241.026 320.174L296.992 313.877C300.293 313.505 303.829 313.455 307.04 312.568C312.502 311.061 313.782 304.952 314.698 300.086L314.726 299.94C317.488 285.24 319.687 270.412 322.264 255.675L329.789 213.702ZM191.023 309.85C188.85 309.707 185.877 307.716 184.228 307.858C185.093 309.311 185.484 310.968 184.985 312.739C183.597 317.663 177.32 315.115 174.296 313.611C171.817 312.376 169.423 310.866 166.679 310.289C163.569 309.634 161.463 310.871 158.837 312.297C156.679 313.468 154.33 314.31 151.913 314.745C150.628 314.976 149.408 315.001 148.189 314.911C148.116 314.97 148.034 315.026 147.94 315.075L147.295 315.414C150.209 315.547 153.177 316.447 155.888 317.271C158.698 318.124 161.456 319.153 164.2 320.205L166.9 321.243C173.558 323.794 180.45 326.216 187.656 326.196C188.174 326.194 188.599 326.337 188.933 326.571L191.023 309.85ZM178.866 294.42C181.013 294.157 182.994 294.439 184.71 295.837C186.779 297.523 188.168 300.319 191.142 300.503C192.009 300.556 192.211 301.776 191.349 302.031C189.135 302.687 187.343 301.488 185.835 299.932L184.821 298.873C183.33 297.329 181.956 296.135 179.427 296.227C176.719 296.326 174.006 296.952 171.315 297.27C168.267 297.631 165.219 297.938 162.161 298.204C162.019 298.216 161.995 297.992 162.128 297.959L165.553 297.106L178.866 294.42ZM176.795 285.639L177.149 285.603C180.266 285.3 183.117 285.289 185.9 286.967L186.434 287.289C188.944 288.816 191.676 290.614 193.246 293.086C193.502 293.491 193.078 293.967 192.648 293.864C189.632 293.139 187.427 290.924 184.889 289.267C182.042 287.407 179.101 287.714 175.855 288.002C172.712 288.282 169.57 288.667 166.458 289.191C163.534 289.683 160.6 290.46 157.646 290.708L157.647 290.702C157.31 290.701 157.117 290.194 157.461 290.022C160.459 288.525 163.931 287.815 167.192 287.131L176.795 285.639ZM70.058 200.828C70.054 200.581 70.401 200.489 70.521 200.702C72.55 204.272 73.61 208.649 74.691 212.583C75.822 216.703 76.735 220.865 77.556 225.058C79.218 233.548 80.104 241.99 80.164 250.643C80.172 251.879 78.161 252.207 77.964 250.941C76.657 242.524 75.406 234.098 74.089 225.683C73.427 221.451 72.657 217.235 71.919 213.015L70.058 200.828ZM90.136 207.046C89.987 206.554 90.703 206.389 90.886 206.839C94.956 216.837 96.335 228.166 93.721 238.713C93.321 240.326 90.96 239.627 91.261 238.034L90.136 207.046ZM142.637 198.163C142.617 197.794 143.094 197.737 143.275 197.99C145.204 200.709 146.003 204.35 149.387 205.756C151.077 206.458 152.978 206.335 154.47 207.52C155.468 208.313 156.233 209.564 155.484 210.764C155.242 211.152 154.567 211.346 154.238 210.925C153.76 210.311 153.507 209.576 152.857 209.115C151.94 208.466 150.704 208.426 149.652 208.121C148.292 207.727 147.094 207.037 146.112 206.011L142.637 198.163ZM174.857 152.814C175.055 152.712 175.247 152.777 175.374 152.949C175.555 153.194 175.533 153.433 175.311 153.601C175.608 154.207 175.958 155.729 176.008 155.95C176.211 156.848 176.428 157.741 176.654 158.632C177.11 160.431 177.509 162.244 177.965 164.043C178.449 165.95 179.025 167.837 179.667 169.697C179.709 169.817 179.753 169.94 179.801 170.065L179.875 170.253L179.893 170.224C180.023 170.019 180.295 170.163 180.262 170.381C180.232 170.579 180.192 170.777 180.158 170.975L180.225 171.153C180.645 172.283 180.932 173.473 180.163 174.47C179.875 174.843 179.558 175.064 179.163 175.13C178.53 177.218 177.735 179.268 176.885 181.236L176.635 181.811C175.385 184.683 174.051 187.517 172.058 189.962C169.883 192.631 166.892 194.455 164.998 197.38C164.116 198.74 163.503 200.171 163.005 201.708L162.818 202.291C162.465 203.378 162.057 204.431 161.038 205.069C160.713 205.272 160.226 205.207 159.964 204.93C157.875 202.719 160.062 198.588 161.322 196.447C163.073 193.47 165.608 191.565 168.146 189.318C170.882 186.897 172.627 183.657 174.315 180.466C175.349 178.511 176.348 176.514 177.398 174.551C176.3 173.58 175.949 171.651 175.577 170.311L175.543 170.191C174.928 168.043 174.439 165.841 174.131 163.628C173.834 161.501 173.71 159.404 173.788 157.265L173.811 156.721L174.857 152.814ZM178.939 162.938C178.696 162.605 179.098 162.228 179.431 162.298C181.454 162.716 183.432 163.942 185.249 164.933L185.443 165.038C186.893 165.82 188.351 166.779 189.113 168.298C189.941 169.95 189.872 171.852 189.76 173.647L189.749 173.815C189.61 175.968 189.588 178.204 189.133 180.318C188.9 181.4 187.921 181.705 187.083 181.449C186.087 184.596 183.289 186.915 181.245 189.398C178.639 192.565 179.129 196.84 179.402 200.653C179.512 202.197 177.593 202.636 176.604 201.812L174.326 199.919C173.947 199.603 173.568 199.286 173.19 198.969C172.866 198.696 172.546 198.421 172.228 198.144L171.753 197.724C171.541 197.535 170.612 196.496 170.341 196.453C169.682 196.348 168.119 198.084 167.583 198.628L167.516 198.697C166.508 199.685 165.598 200.748 164.75 201.876C164.594 202.084 164.289 201.911 164.401 201.672C165.16 200.044 166.043 198.487 167.092 197.03L167.304 196.74C168.002 195.799 168.939 194.137 170.171 193.859C171.675 193.521 173.177 195.029 174.271 195.867L174.34 195.92C174.86 196.31 175.375 196.708 175.889 197.109C175.835 194.27 176.194 191.401 177.659 188.954C178.692 187.228 180.239 185.95 181.564 184.468C183.038 182.817 183.808 180.787 185.142 179.067C185.314 178.846 185.551 178.727 185.808 178.69C185.859 177.307 186.062 175.911 186.22 174.543L186.266 174.134C186.424 172.648 186.8 170.834 186.073 169.441C185.386 168.127 183.81 167.2 182.643 166.308L181.691 165.568L178.939 162.938ZM113.266 147.227C112.656 147.579 112.087 148.018 111.57 148.566C109.944 150.292 108.781 152.44 107.649 154.507C107.041 155.62 106.453 156.745 105.839 157.855C105.572 158.338 105.297 158.816 105.02 159.294C104.891 159.513 104.509 159.95 104.32 160.22C104.53 160.514 104.747 160.805 104.97 161.091C105.054 161.201 110.887 167.559 112.921 170.048C116.035 173.86 118.818 177.887 121.198 182.197C123.528 186.417 125.302 190.886 127.46 195.188C128.541 197.341 129.747 199.48 131.285 201.344C131.345 201.417 131.407 201.486 131.468 201.557C132.055 199.97 133.559 198.272 134.298 197.296L134.367 197.204C136.043 194.944 137.812 192.752 139.619 190.598C141.271 188.63 142.964 186.705 144.698 184.812L145.35 184.104C146.558 182.798 148.094 180.844 149.862 179.911C149.672 179.574 149.453 179.239 149.201 178.909C147.544 176.742 145.201 175.169 142.89 173.751L141.391 172.839C135.74 169.393 130.178 165.788 125.273 161.311C122.678 158.942 120.118 156.462 117.937 153.698L117.165 152.722L113.266 147.227ZM122.693 145.521C120.047 145.743 117.19 145.69 114.745 146.553C116.919 148.609 118.985 150.829 121.107 152.921C121.297 151.506 121.682 150.109 122.01 148.73"
    fill="#F08A5D"
  />
  <path
    initial="hidden"
    animate="visible"
    fillRule="evenodd"
    clipRule="evenodd"
    d="M193.576 36.738C193.562 36.483 193.933 36.452 194.003 36.679C198.059 50.115 200.56 60.588 203.192 74.364L203.969 78.416C206.046 89.225 208.145 100.049 209.917 110.91L210.021 111.558C210.909 117.18 211.421 122.857 210.308 128.491C209.269 133.757 206.427 138.585 202.738 142.43C195.609 149.861 185.701 154.502 175.735 156.577C170.695 157.626 165.497 158.031 160.361 157.666C157.801 157.487 155.245 157.124 152.738 156.59L152.462 156.531C149.935 155.984 147.692 155.332 146.35 152.948C146.013 152.347 146.149 151.318 146.857 151.009C148.195 150.431 149.179 150.189 150.639 150.355C152.032 150.514 153.394 150.936 154.771 151.198C157.404 151.699 160.08 151.952 162.758 152.012C168.02 152.128 173.294 151.467 178.324 149.893C186.966 147.188 195.748 142.011 200.798 134.268C206.738 125.16 204.373 114.105 202.799 104.046L202.751 103.741C201.157 93.46 199.582 83.178 198.053 72.89L197.4 68.48C195.686 56.829 194.066 48.512 193.576 36.738ZM105.831 8.22029C110.145 5.36959 115.504 4.66909 120.571 4.70809L121.205 4.71619C127.692 4.81559 160.347 5.59419 171.28 5.83439L173.881 5.88889C177.324 5.95439 184.267 6.02219 187.843 6.08779L188.05 6.09149C189.805 6.12459 191.56 6.13789 193.315 6.19459L193.572 6.20419C194.887 6.26009 195.981 6.45759 197.01 7.38639C197.534 7.85789 197.738 8.57609 197.69 9.25959L197.682 9.34879L200.289 9.57779C202.058 9.73469 202.994 11.3266 202.291 12.9368L202.255 13.0149C201.007 15.6844 200.053 23.4534 199.385 26.3255C199.033 27.8363 198.751 29.3699 198.586 30.914C198.454 32.13 198.441 33.348 197.766 34.417C196.325 36.698 192.272 36.679 192.199 33.448C192.196 33.345 192.199 33.245 192.209 33.149C182.01 32.701 168.086 32.744 157.901 33.354C148.387 33.926 138.917 35.221 129.596 37.203C127.235 37.704 124.88 38.252 122.543 38.846C120.626 39.331 118.271 39.62 116.557 40.659C114.636 41.828 114.672 43.923 114.881 45.919C115.105 48.033 115.478 46.944 116.007 48.871L116.04 48.993C116.586 51.085 117.261 53.154 118.156 55.119C118.665 56.242 119.487 57.321 119.175 58.612C119 59.339 118.427 60.116 117.901 60.624C115.503 62.931 111.45 61.46 109.821 64.622C108.116 67.927 108.074 72.404 107.929 76.062L107.92 76.276C107.814 78.796 107.845 81.323 108.009 83.837C108.159 86.127 108.768 88.395 107.987 90.597C107.417 92.196 105.556 92.346 104.582 91.044C104.471 90.896 104.368 90.742 104.272 90.588L104.179 90.434L104.172 90.437C104.265 90.583 104.351 90.733 104.434 90.885C104.523 91.055 104.301 91.24 104.166 91.094C101.874 88.594 98.526 89.092 95.934 90.842C93.307 92.621 92.272 96.002 92.135 99.034C91.983 102.396 92.281 106.338 93.679 109.446C94.268 110.761 95.109 111.969 96.503 112.47C97.136 112.696 97.738 112.666 98.397 112.719C99.083 112.772 99.907 113.118 100.572 113.071C101.437 113.009 102.214 113.999 101.968 114.829L101.95 114.884C101.937 114.924 101.924 114.964 101.91 115C101.944 115.031 101.977 115.067 102 115.12C104.516 120.276 107.967 124.865 111.781 129.121C113.693 131.25 115.811 133.206 118.026 135.015C119.119 135.909 120.272 136.802 121.486 137.522C121.891 137.757 122.261 137.917 122.715 138.047C122.927 138.107 123.169 138.136 123.374 138.206L123.588 138.279C123.602 138.284 123.616 138.289 123.629 138.292C124.238 138.362 124.752 138.767 124.953 139.402C125.48 141.055 124.523 142.516 122.887 142.97C121.115 143.468 119.445 142.595 118.04 141.593L117.947 141.526C115.083 139.458 112.444 137.136 110.159 134.427C105.639 129.079 102.807 122.886 101.497 116.036C101.172 116.737 100.735 117.348 99.976 117.773C98.798 118.437 97.391 118.437 96.099 118.214C93.5 117.773 91.284 116.183 89.804 114.031C88.268 111.8 87.695 109.091 87.348 106.451C87.003 103.808 86.834 101.155 87.178 98.506C87.672 94.7 89.265 90.938 92.361 88.853C90.043 83.789 89.636 78.112 89.801 72.567C90.003 65.741 91.178 58.838 92.082 52.075L94.653 32.847L94.758 32.072C95.378 27.5483 96.132 23.0012 97.821 18.7384C99.487 14.5382 102.016 10.7402 105.831 8.22029ZM95.016 99.182C99.261 97.118 103.848 99.02 106.133 103.028C108.119 106.512 102.212 108.815 101.227 105.223L101.199 105.113C100.55 102.393 97.907 100.043 95.149 99.677C94.921 99.644 94.751 99.312 95.016 99.182Z"
    fill="#F08A5D"
  />
  <path
    initial="hidden"
    animate="visible"
    fillRule="evenodd"
    clipRule="evenodd"
    d="M181.111 119.7C182.249 117.69 185.647 118.017 186.166 120.362C187.22 125.114 181.556 129.503 177.254 129.612C172.979 129.721 168.183 126.08 168.801 121.481C168.954 120.344 170.472 120.482 170.99 121.195L171.191 121.469C172.597 123.359 174.452 125.315 177.062 124.854C178.143 124.663 179.125 123.988 179.779 123.117C180.568 122.068 180.481 120.813 181.111 119.7ZM153.928 84.93C154.508 84.771 155.092 84.832 155.605 85.051C156.752 85.26 157.709 86.217 158.045 87.309C158.072 87.403 158.102 87.497 158.134 87.589L158.185 87.727L158.048 87.377C158.112 87.721 158.392 88.084 158.493 88.429C158.617 88.855 158.647 89.338 158.606 89.806C158.969 89.81 159.334 89.822 159.697 89.854L160.049 89.885C162.014 90.068 164.172 90.403 165.337 92.103C165.992 93.058 165.378 94.777 164.175 94.961C162.325 95.244 160.73 94.219 158.886 94.014C157.143 93.82 155.318 93.931 153.598 94.246C150.045 94.896 146.78 96.337 143.318 97.241L142.846 97.361L142.847 97.359C142.254 97.502 141.58 96.676 142.167 96.194C144.941 93.913 148.492 92.066 151.99 90.94C151.481 90.129 151.323 89.061 151.672 88.19C151.725 88.01 151.792 87.834 151.863 87.66L152.01 87.299C152.025 87.13 152.057 86.962 152.105 86.798L152.112 86.748L152.116 86.751C152.377 85.904 153.057 85.171 153.928 84.93ZM189.316 85.061C190.074 84.301 191.14 84.414 191.932 85.011L192.037 85.094C192.783 85.425 193.401 86.15 193.806 86.822C194.227 87.52 194.507 88.23 194.518 88.998C196.354 89.004 198.114 89.556 199.462 91.039C199.897 91.518 200.194 92.256 199.955 92.905L199.812 93.292C199.36 94.517 197.324 95.223 196.633 93.782L196.6 93.711C195.865 91.999 193.044 92.179 191.544 92.354C190.499 92.476 189.467 92.736 188.457 93.027C188.102 93.13 187.749 93.242 187.397 93.355L187.045 93.469C186.857 93.53 185.879 94.062 186.488 93.936C186.651 93.902 186.774 94.14 186.607 94.221C185.882 94.568 185.108 93.877 185.157 93.097C185.241 91.743 187.388 91.002 188.422 90.535L188.484 90.507C188.88 90.323 189.295 90.148 189.724 89.985C189.482 89.626 189.283 89.228 189.118 88.8C188.961 88.396 188.856 88.004 188.799 87.575C188.743 87.365 188.743 87.155 188.799 86.944L188.808 86.885C188.778 86.745 188.764 86.603 188.767 86.458L188.761 86.402H188.767C188.787 85.896 188.987 85.389 189.316 85.061ZM177.195 99.473C180.109 100.374 184.917 102.829 183.399 106.617C181.278 110.097 175.654 107.54 172.928 106.415C170.48 105.604 169.205 109.038 171.573 110.073C191.137 117.817 191.065 97.378 177.905 97.678C176.455 97.711 176.41 99.174 177.195 99.473ZM151.311 72.822L151.808 72.677C154.391 71.928 157.028 70.635 159.322 72.653C160.222 73.444 160.408 75.091 159.764 76.079C158.296 78.33 156.119 77.986 153.747 78.179C151.943 78.325 150.164 78.855 148.479 79.518C147.102 80.06 145.824 80.824 144.618 81.675C143.434 82.512 142.625 83.82 141.41 84.574C140.964 84.85 140.45 84.566 140.29 84.118C139.723 82.529 140.681 80.55 141.492 79.197C142.48 77.544 143.983 76.194 145.598 75.172C147.368 74.053 149.325 73.407 151.311 72.822ZM188.952 71.112C193.319 71.111 197.52 73.541 199.963 77.103C200.792 78.313 200.184 80.106 198.993 80.803C197.657 81.585 196.228 81.023 195.347 79.902L195.295 79.834C193.894 77.967 192.088 76.498 189.948 75.541C188.904 75.073 187.75 74.694 186.62 74.502L186.255 74.44C185.743 74.354 185.15 74.272 184.687 74.352C184.439 74.384 184.211 74.467 184.002 74.591C184.102 74.812 183.843 75.078 183.602 74.946C182.517 74.349 182.65 73.285 183.546 72.459C184.814 71.289 187.315 71.112 188.952 71.112Z"
    fill="#F08A5D"
  />
  <path
    initial="hidden"
    animate="visible"
    fillRule="evenodd"
    clipRule="evenodd"
    d="M214.147 90.795C210.983 112.207 188.899 114.575 184.975 93.318C185.604 93.043 186.058 92.499 185.963 91.445C185.941 86.813 187.378 81.916 191.555 79.34C195.87 76.682 200.921 76.418 205.915 76.485C215.446 76.258 215.245 84.229 214.147 90.795ZM181.517 81.483C178.527 81.357 174.743 81.462 172.063 83.286C171.326 81.301 169.412 79.182 167.479 78.048C174.667 78.259 182.066 77.551 189.308 77.002C187.574 78.184 185.961 79.961 184.913 82.014C183.94 81.495 182.547 81.544 181.517 81.483ZM168.334 93.066C160.04 121.632 139.337 109.181 137.079 105.52C133.008 99.462 132.242 84.735 135.789 80.797C140.865 77.237 148.052 78.154 154.048 78.066C165.065 78.215 172.889 81.513 168.334 93.066ZM223.94 79.927C221.687 79.632 219.279 79.572 217.183 80.565C216.538 77.822 214.513 75.528 212.227 74.518C211.95 74.171 211.991 73.985 211.046 74.037C205.241 72.291 198.745 73.215 193.166 75.005C184.355 75.748 175.111 76.333 166.226 77.356C157.904 73.616 132.787 73.068 131.225 82.286C129.263 81.992 125.919 80.446 124.269 82.543C112.166 80.49 99.662 83.344 87.507 84.614C84.448 85.178 82.872 91.254 86.345 91.17C88.297 90.64 86.284 87.387 88.914 87.143C100.641 85.861 112.112 84.043 123.959 83.83C123.546 85.877 131.795 86.01 131.916 84.815C131.934 84.824 131.953 84.83 131.971 84.838C129.933 92.438 131.772 103.375 135.455 108.088C140.615 114.259 153.572 116.03 159.317 112.059C166.728 108.395 174.437 90 172.272 83.888C176.202 82.642 180.087 83.016 184.166 83.651C183.232 86.29 181.62 92.787 183.939 93.351C183.513 106.25 195.246 114.299 206.062 109.007C215.423 104.611 218.696 90.692 217.551 82.245C218.716 84.497 228.502 82.044 223.94 79.927Z"
    fill="#F08A5D"
  />
  <path
    initial="hidden"
    animate="visible"
    fillRule="evenodd"
    clipRule="evenodd"
    d="M334.705 213.61L333.856 218.348C334.065 218.302 333.654 218.413 333.856 218.348C333.589 221.17 332.661 224.167 332.307 226.996L327.043 256.368C326.135 261.565 327.899 266.788 327.043 271.997L324.418 276.582V281.675C322.903 289.207 324.576 295.446 321.694 302.049C324.067 302.049 318.649 304.145 318.759 304.466L318.66 304.887L318.59 305.167L318.519 305.444C317.5 309.368 315.726 313.173 311.546 314.327C308.393 315.198 304.933 315.277 301.677 315.62L301.316 315.66L244.343 322.075C237.458 322.851 230.577 323.648 223.696 324.455L217.733 325.156C209.419 326.12 201.058 326.879 192.867 328.623C192.565 328.688 192.316 328.808 192.113 328.966C193.762 322.714 195.341 316.471 196.772 310.155C198.382 303.048 199.911 295.927 201.634 288.845C205.105 274.578 208.995 260.405 213.254 246.353C214.148 243.404 215.062 240.461 215.997 237.524L216.653 235.471L217.157 233.835C217.938 231.342 218.904 228.778 221.195 227.402C223.874 225.792 227.529 225.526 230.569 224.968L232.627 224.581C235.707 224.006 238.79 223.453 241.878 222.921C256.659 220.376 271.524 218.333 286.443 216.8C301.969 215.203 317.547 214.166 333.144 213.658L334.705 213.61ZM193.293 311.546L193.439 311.558L191.311 328.592C190.971 328.354 190.538 328.208 190.011 328.209C183.03 328.229 176.339 325.996 169.866 323.54L168.881 323.164L166.132 322.107C163.339 321.035 160.531 319.987 157.671 319.118L156.514 318.768L155.927 318.594C153.76 317.962 151.483 317.386 149.229 317.243L148.923 317.226L149.578 316.881C149.674 316.831 149.759 316.774 149.833 316.714C151.074 316.805 152.316 316.78 153.624 316.544C156.084 316.101 158.476 315.244 160.673 314.051L161.653 313.518L162.054 313.305L162.32 313.168L162.584 313.034C164.47 312.093 166.274 311.503 168.656 312.004C171.36 312.574 173.729 314.033 176.166 315.266L176.6 315.482L176.89 315.623L177.186 315.762L177.486 315.899C180.783 317.384 186.029 318.988 187.292 314.5C187.8 312.697 187.402 311.009 186.52 309.529C188.163 309.386 191.095 311.325 193.293 311.546Z"
    fill="#F08A5D"
  />
  <path
    initial="hidden"
    animate="visible"
    fillRule="evenodd"
    clipRule="evenodd"
    d="M124.76 141.152C126.192 137.546 131.038 138.948 130.498 142.736C130.175 145.007 128.934 147.403 127.818 149.393C126.91 151.012 125.874 152.593 124.47 153.806C126.97 156.142 129.565 158.391 132.225 160.527C135.129 162.858 138.182 165.008 141.337 166.982C144.104 168.714 146.996 170.247 149.604 172.224C152.029 174.061 154.238 176.27 155.362 179.155C156.56 182.226 156.04 185.397 155.157 188.467L155.056 188.814C154.155 191.854 152.596 195.52 154.758 198.385C155.86 199.844 157.46 200.877 158.842 202.042C160.07 203.079 161.224 204.206 162.28 205.416C164.586 208.056 166.461 211.025 167.644 214.333L167.75 214.634C168.764 217.563 169.505 221.151 168.135 224.027C167.742 224.851 166.473 224.583 166.254 223.78C165.756 221.963 165.782 220.058 165.365 218.213C164.93 216.296 164.207 214.475 163.263 212.753C161.436 209.422 158.962 206.575 156.039 204.169L155.163 203.456C152.884 201.583 150.789 199.595 150.326 196.494C149.831 193.176 151.158 190.016 152.011 186.875C152.606 184.687 152.801 182.589 152.158 180.611C151.372 181.895 150.301 183.113 149.454 184.2C147.765 186.365 146.061 188.518 144.362 190.673C142.62 192.884 140.92 195.13 139.302 197.433C138.578 198.464 137.862 199.501 137.147 200.538C136.611 201.319 135.863 202.097 135.277 202.894C135.42 203.318 135.409 203.808 135.151 204.158C132.049 208.355 127.634 199.597 126.483 197.384C124.138 192.877 122.393 188.091 120.042 183.585C117.604 178.914 114.828 174.369 111.736 170.104C109.864 167.525 107.767 165.102 106.056 162.441C102.024 166.103 96.7168 168.558 91.8435 170.783C86.4888 173.228 80.9243 175.225 75.4341 177.346L73.8124 177.977C64.352 181.674 54.6615 185.734 46.7983 192.301C37.5574 200.018 32.0913 210.772 28.0214 221.909C23.3369 234.731 19.4612 247.898 15.8486 261.056C13.9998 267.789 12.2455 274.552 10.5963 281.337C9.14312 287.315 7.93851 293.352 6.25623 299.267C9.66802 299.146 13.5593 300.469 16.4721 300.85C29.7475 302.591 42.8444 305.364 55.3781 310.167C56.9265 310.759 57.3745 312.308 57.0375 313.563C57.9293 313.31 58.8221 313.056 59.7149 312.804C58.7366 311.303 59.2028 308.62 59.2802 306.957L59.2853 306.843C59.3647 304.626 59.6039 302.407 59.7597 300.195C60.0569 295.977 60.4428 291.79 60.9559 287.597L61.0872 286.548C61.6685 281.987 62.0981 277.397 62.7333 272.843L62.8086 272.321C62.5043 271.157 62.15 270.006 61.7774 268.86C60.7869 265.807 59.3871 262.933 58.1624 259.976C58.0179 259.629 58.5126 259.428 58.7437 259.637C60.8194 261.508 62.4697 263.88 63.7941 266.362C63.8175 266.245 63.8379 266.126 63.8613 266.009L64.013 265.266C64.3856 263.448 64.8386 261.536 65.9523 260.062C66.0714 259.906 66.3045 259.873 66.4175 260.062C67.4834 261.867 67.6025 264.154 67.7654 266.208C67.9517 268.532 67.9751 270.885 67.9415 273.215C67.8784 277.768 67.5577 282.335 67.3012 286.882C67.0517 291.349 66.56 295.76 65.9258 300.183L65.8047 301.013C65.4942 303.119 65.2417 305.251 64.8325 307.342L64.7164 307.911C64.4986 308.948 64.3632 310.411 63.9285 311.625C75.1226 308.499 86.335 305.444 97.5668 302.443C105.686 300.273 113.812 298.136 121.936 295.985C122.365 295.212 122.899 294.49 123.565 293.844C125.76 291.716 128.667 290.766 131.336 292.404C131.552 292.538 131.571 292.878 131.336 293.006C130.824 293.286 130.312 293.574 129.81 293.873L134.687 292.55C138.333 291.56 142.023 290.324 145.755 289.634C152.628 286.238 160.02 283.78 167.26 281.35L168.114 281.061C171.821 279.796 175.656 278.379 179.487 277.677C182.29 277.163 185.583 277.784 186.71 280.659C188.138 281.602 189.481 282.709 190.777 283.798C191.714 284.585 192.612 285.421 193.525 286.235L193.693 286.383C194.44 287.033 195.032 287.467 195.216 288.5C195.31 289.032 194.972 289.754 194.315 289.683C192.304 289.467 190.67 287.134 189.306 285.742C188.253 284.664 187.191 283.551 186.23 282.367C185.669 282.672 184.901 282.617 184.544 281.941C182.695 278.434 177.627 280.864 174.823 281.697L170.807 282.886C168.799 283.482 166.791 284.081 164.788 284.691C159.28 286.365 153.799 288.24 148.242 289.778C148.739 290.325 148.67 291.298 147.727 291.669C143.376 293.378 138.603 294.261 134.083 295.434C131.231 296.176 128.378 296.921 125.528 297.671C125.038 298.464 124.687 299.36 124.539 300.405C123.996 304.244 125.044 308.674 126.066 312.387L126.221 312.942C127.061 315.926 128.297 319.586 130.869 321.471C131.497 321.931 132.297 322.251 133.103 322.324C138.139 319.728 143.174 317.133 148.212 314.543C149.146 314.063 150.008 314.713 150.218 315.485C151.994 315.193 153.767 314.733 155.381 314.184C158.093 313.262 160.212 311.503 162.755 310.286C167.675 307.933 172.7 310.824 177.106 313.021L178.121 313.521C180.096 314.481 184.206 316.325 185.154 313.7C186.071 311.161 183.173 308.446 181.301 307.303C179.068 305.941 176.47 305.212 173.949 304.604C172.508 304.257 171.05 303.974 169.584 303.767C167.921 303.533 166.203 303.568 164.601 303.027C163.805 302.759 163.683 301.494 164.601 301.285C167.067 300.723 170.009 301.336 172.582 301.962L173.926 302.294C176.518 302.931 179.136 303.73 181.496 305.001C183.213 305.925 185.025 307.328 186.208 309.047C187.237 308.09 188.516 308.123 189.848 308.478L190.572 308.679C191.766 309.01 192.734 309.239 193.897 309.009C194.052 308.162 194.209 307.315 194.378 306.469C196.035 298.143 197.851 289.849 199.855 281.6C203.312 267.371 207.312 253.298 211.822 239.369L212.275 237.976C213.314 234.791 214.152 231.319 215.829 228.393C217.415 225.625 219.956 224.031 222.974 223.187C226.401 222.229 230.001 221.728 233.496 221.08C234.275 220.936 235.057 220.8 235.838 220.658C235.178 219.465 234.686 218.112 234.243 217.074L234.164 216.894C233.212 214.719 232.357 212.505 231.53 210.28L230.912 208.607C229.421 204.578 227.88 200.616 225.782 196.848C223.575 192.883 220.646 189.64 216.995 186.957C209.55 181.485 200.576 178.694 193.355 172.848C193.06 172.608 193.44 172.199 193.739 172.35C198.614 174.803 203.878 176.47 208.95 178.468L209.95 178.862C213.958 180.453 218.029 182.186 221.498 184.762C225.366 187.634 228.413 191.202 230.702 195.443C232.959 199.625 234.403 204.305 235.994 208.771L236.42 209.961C237.063 211.745 237.726 213.524 238.486 215.261C239.089 216.64 240.215 218.213 240.727 219.789C242.126 219.545 243.527 219.301 244.928 219.067C275.285 213.992 305.983 211.01 336.748 210.138C337.951 210.103 338.573 211.253 338.396 212.305C335.444 229.786 332.821 247.326 329.942 264.82C328.685 272.456 327.404 280.085 326.092 287.71C325.427 291.574 324.659 295.423 324.029 299.292C323.522 302.416 323.152 305.565 322.281 308.617C321.498 311.354 320.298 313.993 318.325 316.081C316.199 318.332 313.233 319.422 310.247 319.936C302.667 321.242 294.891 321.776 287.249 322.646L246.561 327.281C247.156 332.692 247.2 338.019 246.927 343.495L246.772 346.483C246.644 348.886 246.493 351.294 246.148 353.673C245.715 356.658 244.352 359.184 242.344 361.413C240.5 363.461 238.259 365.207 236.08 366.881C233.818 368.619 231.481 370.295 228.822 371.37L228.476 371.508C226.143 372.419 221.766 373.832 218.578 373.316C218.994 375.407 219.8 377.656 219.086 379.726C218.754 380.686 217.499 381.165 216.73 380.348C215.207 378.727 215.088 376.587 214.727 374.473C214.352 372.273 214.028 370.065 213.741 367.852C213.184 363.573 212.753 359.255 212.62 354.939C212.485 350.508 212.536 346.07 212.775 341.643C212.897 339.369 213.05 337.098 213.338 334.839C213.461 333.876 213.586 332.911 213.73 331.951C213.783 331.6 213.841 331.252 213.903 330.904L210.251 331.316C204.651 331.942 199.049 332.507 193.409 332.595C192.741 332.606 192.228 332.301 191.892 331.857C191.534 332.441 190.911 332.858 190.019 332.855C182.145 332.825 174.81 330.247 167.647 327.209C164.037 325.677 160.482 324.017 156.866 322.498C153.492 321.08 149.883 320.069 146.589 318.471L137.935 323.017C137.871 323.241 137.791 323.452 137.704 323.628C137.14 324.78 136.03 325.406 134.895 325.876C133.805 326.329 132.677 326.469 131.579 326.355C125.016 329.799 118.449 333.239 111.88 336.672L105.309 340.102C92.2172 346.928 79.1774 353.864 66.0032 360.529L65.032 361.019C60.4815 363.304 55.596 365.619 50.5456 367.347C50.456 368.627 50.513 369.872 50.6199 371.226L50.6454 371.522C50.796 373.122 51.1188 375.128 49.8371 376.268C49.1692 376.861 47.9771 376.863 47.5241 375.97C46.7005 374.349 47.4396 371.795 47.7002 370.033C47.7929 369.407 47.9059 368.764 48.0718 368.139C42.2831 369.865 36.3185 370.702 30.4273 369.733C24.6913 368.791 20.249 365.172 16.6674 360.746C12.8877 356.076 10.2018 350.634 8.76065 344.8C7.12072 338.161 7.01363 331.304 7.05211 324.504C7.09293 317.262 7.36057 309.985 8.24014 302.792C7.27638 302.565 6.20756 302.368 5.23362 302.438C4.75129 303.21 3.81563 303.535 2.97006 303.434C1.13142 305.465 5.79517 307.539 7.28555 308.06C7.80301 308.24 7.74763 309.082 7.15076 309.056L6.77471 309.039C4.47175 308.916 2.09253 308.522 0.738467 306.38C-0.346537 304.662 -0.0205661 302.627 1.27293 301.226C2.12725 293.138 4.1696 285.262 6.07044 277.372C7.93576 269.628 10.0103 261.934 12.209 254.279L13.1948 250.852C16.6567 238.848 20.2752 226.748 25.0511 215.221C27.4353 209.465 30.1823 203.816 33.9058 198.797C37.3768 194.119 41.4751 190.116 46.1854 186.697C54.9658 180.322 65.2702 176.47 75.3944 172.801L75.8474 172.638C81.0943 170.737 86.3279 168.814 91.5147 166.755C96.1019 164.934 100.496 162.626 105.061 160.777C104.914 160.508 104.77 160.236 104.633 159.959L104.547 160.03C104.533 160.041 104.519 160.054 104.504 160.064C104.044 160.383 103.369 160.226 102.99 159.868C101.922 158.86 102.283 157.739 102.996 156.692L103.09 156.558C103.962 155.335 104.74 154.041 105.545 152.774L106.048 151.981C107.4 149.863 108.82 147.731 110.621 145.981C111.456 145.17 112.369 144.563 113.337 144.111C113.254 143.935 113.979 143.577 114.186 143.757C117.252 142.634 120.779 142.869 124.123 143.179L124.76 141.152ZM244.592 327.505L240.329 327.99C235.639 328.525 230.948 329.041 226.254 329.553L216.062 330.662C216.037 331.244 215.965 331.813 215.952 332.252C215.886 334.517 215.836 336.784 215.789 339.05C215.696 343.592 215.798 348.138 216.097 352.672C216.387 357.063 216.768 361.457 217.36 365.82L217.481 366.692L217.551 367.151C218.035 367.196 218.509 367.427 218.904 367.899C219.768 368.93 222.888 367.928 224.108 367.494C226.113 366.78 228 365.573 229.742 364.362C231.444 363.181 232.976 361.802 234.449 360.352L235.653 359.159C236.851 357.966 238.05 356.696 238.784 355.197C239.78 353.164 239.908 350.667 240.2 348.452C240.56 345.728 240.987 343.004 241.44 340.293L244.592 327.505ZM120.836 298.91L120.393 299.026C104.331 303.299 88.2907 307.699 72.1785 311.784C64.2054 313.806 56.1936 315.681 48.2103 317.664L46.9184 317.987C40.6199 319.582 34.2461 321.5 29.423 326.074C29.2454 326.242 28.9867 325.984 29.1539 325.805C34.3518 320.264 41.7449 317.919 48.8425 315.886C50.1547 315.51 51.4679 315.143 52.7812 314.769C43.1277 311.323 33.322 308.326 23.2905 306.187C20.707 305.636 18.0938 305.233 15.5126 304.68C13.7125 304.295 11.9544 303.736 10.1734 303.275L8.77236 302.921L8.75374 307.355C8.73042 313.634 8.74161 319.909 9.06147 326.187L9.12216 327.35C9.49536 334.338 10.0781 341.47 12.5544 348.059C14.5667 353.412 17.7742 358.455 21.9691 362.355C24.091 364.328 26.3733 365.864 29.1937 366.623C31.8124 367.327 34.5571 367.409 37.2494 367.222C50.1638 366.319 61.6583 359.295 72.8768 353.479C91.2256 343.967 109.576 334.459 127.942 324.983C127.447 324.643 126.979 324.251 126.554 323.811C124.09 321.264 122.791 317.777 121.938 314.401C121.03 310.807 120.486 306.955 120.423 303.244L120.836 298.91ZM144.205 328.655C144.367 328.568 144.556 328.677 144.564 328.86C144.62 330.265 143.845 331.65 143.265 332.917L143.204 333.051C142.5 334.618 141.73 336.164 140.932 337.687C139.34 340.728 137.685 343.736 135.957 346.703C132.484 352.669 128.622 358.386 124.06 363.581C123.03 364.755 121.333 363.25 121.995 361.986C125.184 355.894 128.901 350.142 132.728 344.44C134.644 341.586 136.559 338.728 138.493 335.886C139.3 334.7 140.118 333.519 140.958 332.355L141.464 331.659L144.205 328.655ZM334.713 213.627C318.595 214.114 302.495 215.167 286.452 216.816C271.532 218.351 256.667 220.392 241.886 222.938C238.799 223.47 235.716 224.023 232.635 224.598L230.789 224.946C227.708 225.531 223.946 225.772 221.203 227.419C218.312 229.156 217.531 232.787 216.568 235.78C215.437 239.3 214.336 242.83 213.264 246.369C209.004 260.422 205.113 274.595 201.643 288.861C199.919 295.944 198.391 303.065 196.781 310.173C195.35 316.488 193.771 322.731 192.121 328.982C192.325 328.824 192.573 328.704 192.875 328.64C201.066 326.895 209.428 326.136 217.741 325.172L218.545 325.079C227.145 324.066 235.745 323.06 244.351 322.092L301.325 315.677C304.686 315.298 308.285 315.247 311.554 314.343C317.115 312.808 318.418 306.585 319.35 301.628L319.379 301.479C322.19 286.504 324.429 271.398 327.053 256.385L334.713 213.627ZM193.447 311.574C191.235 311.429 188.208 309.401 186.529 309.545C187.41 311.025 187.808 312.713 187.3 314.518C185.887 319.534 179.497 316.938 176.418 315.406C173.895 314.148 171.458 312.609 168.664 312.022C165.498 311.354 163.354 312.615 160.681 314.067C158.484 315.26 156.093 316.118 153.632 316.561C152.324 316.796 151.082 316.822 149.841 316.73C149.767 316.79 149.683 316.847 149.588 316.897L148.931 317.243C151.897 317.378 154.919 318.295 157.679 319.134C160.539 320.003 163.347 321.052 166.141 322.123L168.889 323.181C175.667 325.779 182.683 328.247 190.019 328.226C190.547 328.224 190.979 328.37 191.319 328.608L193.447 311.574ZM181.071 295.856C183.256 295.588 185.273 295.875 187.02 297.299C189.126 299.017 190.54 301.865 193.568 302.053C194.451 302.106 194.656 303.349 193.779 303.609C191.525 304.277 189.701 303.056 188.165 301.471L187.133 300.392C185.615 298.819 184.216 297.603 181.642 297.696C178.885 297.797 176.123 298.435 173.384 298.759C170.281 299.127 167.178 299.44 164.065 299.71C163.92 299.723 163.896 299.495 164.031 299.461L167.518 298.592L181.071 295.856ZM178.962 286.91L179.323 286.874C182.496 286.565 185.398 286.554 188.232 288.263L188.775 288.591C191.33 290.147 194.112 291.978 195.71 294.497C195.97 294.909 195.539 295.394 195.101 295.289C192.031 294.551 189.786 292.294 187.202 290.606C184.304 288.711 181.31 289.024 178.006 289.318C174.806 289.603 171.607 289.995 168.439 290.529C165.463 291.03 162.476 291.822 159.468 292.074L159.469 292.068C159.126 292.067 158.93 291.551 159.28 291.375C162.332 289.85 165.867 289.127 169.186 288.43L178.962 286.91ZM70.3023 200.512C70.2982 200.26 70.6515 200.167 70.7736 200.384C72.8392 204.02 73.9183 208.479 75.0188 212.487C76.1701 216.684 77.0996 220.924 77.9354 225.195C79.6273 233.844 80.5293 242.444 80.5904 251.259C80.5985 252.518 78.5513 252.853 78.3507 251.563C77.0202 242.988 75.7466 234.405 74.4059 225.832C73.732 221.521 72.9481 217.226 72.1968 212.927L70.3023 200.512ZM90.742 206.846C90.5904 206.345 91.3193 206.177 91.5056 206.635C95.6489 216.821 97.0527 228.362 94.3916 239.106C93.9844 240.749 91.5809 240.037 91.8873 238.414L90.742 206.846ZM144.189 197.797C144.169 197.421 144.654 197.363 144.838 197.621C146.802 200.391 147.616 204.1 151.061 205.532C152.781 206.247 154.716 206.122 156.235 207.329C157.251 208.137 158.03 209.411 157.267 210.634C157.021 211.029 156.334 211.227 155.999 210.798C155.512 210.172 155.255 209.424 154.593 208.954C153.66 208.293 152.401 208.252 151.33 207.941C149.946 207.54 148.726 206.837 147.727 205.792L144.189 197.797ZM176.99 151.599C177.191 151.495 177.387 151.562 177.516 151.737C177.7 151.986 177.678 152.23 177.452 152.401C177.754 153.018 178.11 154.569 178.161 154.794C178.368 155.709 178.589 156.618 178.819 157.526C179.283 159.359 179.689 161.206 180.154 163.038C180.646 164.981 181.233 166.903 181.886 168.798C181.929 168.921 181.974 169.046 182.023 169.173L182.098 169.365L182.116 169.335C182.249 169.126 182.526 169.273 182.492 169.495C182.461 169.697 182.421 169.898 182.386 170.1L182.454 170.282C182.882 171.433 183.174 172.645 182.391 173.661C182.098 174.041 181.775 174.266 181.373 174.333C180.729 176.46 179.919 178.548 179.054 180.553L178.8 181.139C177.527 184.065 176.169 186.952 174.14 189.443C171.926 192.162 168.881 194.02 166.953 196.999C166.055 198.385 165.431 199.843 164.924 201.408L164.734 202.002C164.374 203.11 163.959 204.182 162.922 204.832C162.591 205.039 162.095 204.973 161.828 204.691C159.702 202.438 161.928 198.23 163.211 196.049C164.993 193.016 167.574 191.076 170.158 188.786C172.943 186.32 174.719 183.02 176.438 179.769C177.49 177.777 178.507 175.743 179.576 173.743C178.459 172.754 178.101 170.789 177.723 169.424L177.688 169.302C177.062 167.113 176.564 164.87 176.25 162.616C175.948 160.449 175.822 158.313 175.901 156.134L175.925 155.579L176.99 151.599ZM181.145 161.913C180.898 161.574 181.307 161.189 181.646 161.261C183.705 161.687 185.719 162.936 187.569 163.945L187.766 164.052C189.242 164.849 190.727 165.826 191.502 167.373C192.345 169.056 192.275 170.994 192.161 172.822L192.15 172.993C192.008 175.187 191.986 177.464 191.523 179.618C191.286 180.72 190.289 181.031 189.436 180.77C188.422 183.976 185.573 186.339 183.493 188.868C180.84 192.094 181.339 196.449 181.616 200.334C181.728 201.907 179.775 202.354 178.768 201.514L176.449 199.586C176.063 199.264 175.677 198.941 175.293 198.618C174.963 198.34 174.637 198.06 174.313 197.778L173.83 197.35C173.614 197.157 172.668 196.099 172.392 196.055C171.721 195.948 170.13 197.717 169.584 198.271L169.516 198.341C168.49 199.348 167.564 200.43 166.7 201.58C166.542 201.791 166.231 201.615 166.345 201.372C167.118 199.713 168.017 198.127 169.085 196.643L169.3 196.347C170.011 195.389 170.965 193.696 172.219 193.412C173.75 193.068 175.279 194.604 176.393 195.458L176.463 195.512C176.993 195.909 177.517 196.315 178.04 196.723C177.985 193.831 178.351 190.908 179.842 188.416C180.894 186.657 182.469 185.355 183.817 183.846C185.318 182.164 186.102 180.096 187.46 178.344C187.635 178.119 187.876 177.997 188.138 177.96C188.19 176.551 188.396 175.129 188.557 173.735L188.604 173.318C188.765 171.805 189.148 169.957 188.408 168.537C187.708 167.199 186.104 166.255 184.916 165.346L183.947 164.592L181.145 161.913ZM114.289 145.908C113.668 146.266 113.089 146.714 112.562 147.272C110.907 149.03 109.723 151.218 108.571 153.324C107.952 154.458 107.353 155.604 106.728 156.735C106.456 157.227 106.176 157.714 105.894 158.201C105.763 158.424 105.374 158.869 105.182 159.144C105.395 159.443 105.616 159.74 105.843 160.031C105.929 160.143 111.867 166.62 113.938 169.156C117.108 173.039 119.941 177.142 122.364 181.532C124.736 185.831 126.542 190.384 128.739 194.766C129.839 196.96 131.067 199.139 132.632 201.038C132.694 201.112 132.757 201.182 132.819 201.255C133.416 199.638 134.947 197.908 135.7 196.914L135.77 196.82C137.476 194.518 139.277 192.285 141.117 190.09C142.798 188.086 144.522 186.125 146.287 184.196L146.951 183.475C148.181 182.144 149.744 180.154 151.544 179.203C151.351 178.86 151.128 178.519 150.871 178.183C149.184 175.975 146.799 174.373 144.447 172.928L142.921 171.999C137.168 168.489 131.506 164.816 126.512 160.255C123.87 157.842 121.264 155.316 119.044 152.5L118.258 151.506L114.289 145.908ZM123.886 144.17C121.192 144.396 118.284 144.342 115.794 145.221C118.008 147.316 120.111 149.577 122.271 151.708C122.465 150.267 122.856 148.844 123.19 147.439"
    fill="#6A2C70"
  />
  <path
    initial="hidden"
    animate="visible"
    fillRule="evenodd"
    clipRule="evenodd"
    d="M196.046 33.3507C196.032 33.091 196.409 33.0594 196.481 33.2906C200.61 46.9781 203.156 57.6471 205.835 71.681L206.626 75.8088C208.741 86.8201 210.877 97.8467 212.681 108.911L212.787 109.571C213.691 115.298 214.212 121.082 213.079 126.821C212.022 132.186 209.128 137.104 205.373 141.021C198.115 148.591 188.029 153.319 177.883 155.433C172.753 156.501 167.461 156.914 162.232 156.542C159.626 156.36 157.024 155.99 154.472 155.446L154.191 155.386C151.619 154.829 149.335 154.164 147.969 151.736C147.626 151.124 147.764 150.075 148.485 149.761C149.847 149.172 150.849 148.925 152.335 149.094C153.753 149.256 155.14 149.686 156.542 149.953C159.222 150.463 161.946 150.721 164.673 150.782C170.029 150.9 175.398 150.227 180.519 148.624C189.317 145.868 198.257 140.594 203.398 132.706C209.445 123.428 207.037 112.166 205.435 101.919L205.386 101.608C203.763 91.1344 202.16 80.6599 200.604 70.1794L199.939 65.6868C198.194 53.8178 196.545 45.3451 196.046 33.3507ZM106.72 4.29928C111.112 1.39522 116.567 0.681613 121.725 0.721343L122.371 0.729598C128.975 0.830858 162.218 1.62403 173.348 1.86872L175.996 1.92424C179.501 1.99097 186.569 2.06004 190.21 2.12687L190.42 2.13063C192.207 2.16435 193.994 2.1779 195.78 2.23566L196.042 2.24544C197.38 2.30239 198.494 2.50359 199.542 3.44977C200.075 3.9301 200.283 4.66174 200.234 5.35803L200.226 5.4489L202.88 5.68219C204.681 5.84202 205.634 7.46372 204.918 9.10406L204.881 9.18362C203.611 11.9031 202.64 19.8175 201.96 22.7434C201.601 24.2824 201.314 25.8447 201.146 27.4177C201.012 28.6565 200.999 29.8973 200.311 30.9863C198.844 33.31 194.718 33.2906 194.644 29.9992C194.641 29.8942 194.644 29.7924 194.654 29.6946C184.271 29.2382 170.097 29.282 159.728 29.9034C150.043 30.4861 140.402 31.8053 130.913 33.8244C128.51 34.3348 126.112 34.8931 123.733 35.4982C121.781 35.9923 119.384 36.2867 117.639 37.3451C115.684 38.536 115.72 40.6702 115.933 42.7036C116.161 44.8571 116.541 43.7478 117.079 45.7108L117.113 45.8351C117.669 47.9663 118.356 50.074 119.267 52.0758C119.785 53.2198 120.622 54.319 120.304 55.6341C120.126 56.3748 119.543 57.1663 119.007 57.6838C116.566 60.034 112.44 58.5355 110.782 61.7566C109.046 65.1235 109.003 69.6843 108.856 73.4107L108.846 73.6288C108.739 76.1959 108.77 78.7702 108.937 81.3313C109.09 83.6641 109.71 85.9746 108.915 88.2178C108.334 89.8467 106.44 89.9995 105.448 88.6732C105.335 88.5224 105.231 88.3655 105.133 88.2086L105.038 88.0517L105.031 88.0548C105.126 88.2035 105.213 88.3563 105.298 88.5112C105.388 88.6844 105.162 88.8728 105.025 88.7241C102.692 86.1773 99.2832 86.6846 96.6445 88.4674C93.9702 90.2797 92.9166 93.724 92.7771 96.8127C92.6223 100.238 92.9257 104.253 94.3489 107.42C94.9485 108.759 95.8047 109.99 97.2238 110.5C97.8682 110.73 98.481 110.7 99.1519 110.754C99.8503 110.808 100.689 111.16 101.366 111.112C102.247 111.049 103.038 112.058 102.787 112.903L102.769 112.959C102.756 113 102.742 113.041 102.728 113.078C102.763 113.109 102.796 113.146 102.82 113.2C105.381 118.452 108.894 123.127 112.777 127.463C114.724 129.632 116.88 131.624 119.135 133.467C120.247 134.378 121.421 135.288 122.657 136.021C123.069 136.26 123.446 136.423 123.908 136.556C124.124 136.617 124.37 136.647 124.579 136.718L124.797 136.792C124.811 136.797 124.825 136.802 124.839 136.805C125.459 136.877 125.982 137.289 126.186 137.936C126.723 139.62 125.749 141.109 124.083 141.571C122.279 142.078 120.579 141.189 119.149 140.168L119.054 140.1C116.139 137.993 113.452 135.628 111.126 132.868C106.524 127.42 103.641 121.111 102.308 114.133C101.977 114.847 101.532 115.469 100.759 115.902C99.5601 116.579 98.1278 116.579 96.8125 116.352C94.1667 115.902 91.9108 114.283 90.4041 112.09C88.8404 109.818 88.2571 107.058 87.9038 104.369C87.5526 101.676 87.3806 98.9734 87.7308 96.2748C88.2337 92.3976 89.8554 88.5652 93.0072 86.4412C90.6474 81.2824 90.2331 75.4991 90.401 69.8503C90.6067 62.8966 91.8028 55.8644 92.7231 48.9748L95.3405 29.3869L95.4474 28.5974C96.0785 23.989 96.8461 19.3568 98.5655 15.0143C100.262 10.7354 102.836 6.86634 106.72 4.29928ZM95.71 96.9635C100.031 94.8608 104.701 96.7984 107.027 100.881C109.049 104.431 103.036 106.777 102.033 103.118L102.004 103.005C101.344 100.235 98.6531 97.8406 95.8454 97.4677C95.6133 97.4341 95.4402 97.0959 95.71 96.9635Z"
    fill="#6A2C70"
  />
  <path
    initial="hidden"
    animate="visible"
    fillRule="evenodd"
    clipRule="evenodd"
    d="M183.356 117.866C184.515 115.818 187.974 116.151 188.502 118.54C189.575 123.381 183.809 127.852 179.43 127.963C175.078 128.074 170.195 124.365 170.824 119.68C170.98 118.522 172.526 118.662 173.053 119.388L173.258 119.668C174.689 121.593 176.577 123.586 179.234 123.116C180.335 122.921 181.334 122.234 182 121.346C182.803 120.278 182.715 118.999 183.356 117.866ZM155.683 82.4447C156.274 82.2828 156.868 82.3449 157.391 82.568C158.558 82.7809 159.533 83.7558 159.875 84.8683C159.902 84.964 159.933 85.0598 159.965 85.1535L160.017 85.2941L159.878 84.9375C159.943 85.288 160.228 85.6578 160.331 86.0092C160.457 86.4432 160.488 86.9352 160.446 87.412C160.815 87.4161 161.187 87.4283 161.556 87.4609L161.915 87.4925C163.915 87.6789 166.112 88.0202 167.298 89.752C167.965 90.7249 167.34 92.476 166.115 92.6635C164.232 92.9518 162.608 91.9076 160.731 91.6988C158.956 91.5011 157.099 91.6142 155.348 91.9351C151.731 92.5973 148.407 94.0652 144.882 94.9862L144.402 95.1084L144.403 95.1064C143.799 95.252 143.113 94.4106 143.711 93.9196C146.535 91.5959 150.15 89.7143 153.711 88.5672C153.192 87.741 153.032 86.6531 153.387 85.7658C153.441 85.5824 153.509 85.4031 153.581 85.2258L153.731 84.8581C153.746 84.6859 153.779 84.5148 153.828 84.3477L153.835 84.2968L153.839 84.2998C154.105 83.437 154.797 82.6902 155.683 82.4447ZM191.709 82.5782C192.481 81.804 193.566 81.9191 194.372 82.5273L194.479 82.6118C195.239 82.949 195.868 83.6876 196.28 84.3721C196.709 85.0832 196.994 85.8065 197.005 86.5889C198.874 86.595 200.666 87.1573 202.038 88.6681C202.481 89.156 202.783 89.9079 202.54 90.569L202.394 90.9632C201.934 92.2112 199.861 92.9304 199.158 91.4624L199.124 91.3901C198.376 89.646 195.504 89.8294 193.977 90.0077C192.913 90.132 191.863 90.3968 190.835 90.6933C190.473 90.7982 190.114 90.9123 189.756 91.0274L189.397 91.1436C189.206 91.2057 188.21 91.7477 188.83 91.6193C188.996 91.5847 189.121 91.8271 188.951 91.9096C188.213 92.2631 187.425 91.5592 187.475 90.7646C187.561 89.3853 189.746 88.6304 190.799 88.1546L190.862 88.1261C191.265 87.9387 191.688 87.7604 192.124 87.5943C191.878 87.2286 191.676 86.8232 191.508 86.3872C191.348 85.9756 191.241 85.5763 191.183 85.1392C191.126 84.9253 191.126 84.7114 191.183 84.4964L191.192 84.4363C191.161 84.2937 191.147 84.149 191.15 84.0013L191.144 83.9443H191.15C191.171 83.4288 191.374 82.9123 191.709 82.5782ZM179.37 97.2599C182.336 98.1778 187.231 100.679 185.685 104.538C183.526 108.083 177.801 105.478 175.026 104.332C172.534 103.506 171.236 107.004 173.646 108.058C193.563 115.947 193.49 95.1257 180.093 95.4313C178.616 95.465 178.571 96.9553 179.37 97.2599ZM153.019 70.1101L153.525 69.9624C156.155 69.1994 158.839 67.8822 161.175 69.938C162.091 70.7438 162.28 72.4216 161.625 73.4281C160.13 75.7212 157.914 75.3708 155.499 75.5674C153.663 75.7161 151.852 76.256 150.136 76.9314C148.734 77.4836 147.433 78.2619 146.206 79.1288C145 79.9815 144.177 81.314 142.94 82.0821C142.486 82.3632 141.963 82.0739 141.8 81.6175C141.223 79.9988 142.198 77.9828 143.023 76.6044C144.029 74.9205 145.559 73.5452 147.203 72.5041C149.005 71.3642 150.998 70.7061 153.019 70.1101ZM191.339 68.3681C195.784 68.3671 200.061 70.8426 202.548 74.4712C203.392 75.7039 202.773 77.5304 201.56 78.2405C200.2 79.0371 198.746 78.4646 197.849 77.3226L197.796 77.2534C196.37 75.3514 194.531 73.8549 192.352 72.88C191.29 72.4032 190.115 72.0172 188.965 71.8216L188.593 71.7584C188.072 71.6708 187.468 71.5873 186.997 71.6688C186.744 71.7013 186.512 71.7859 186.299 71.9122C186.401 72.1374 186.137 72.4083 185.892 72.2739C184.788 71.6657 184.923 70.5818 185.835 69.7403C187.126 68.5484 189.672 68.3681 191.339 68.3681Z"
    fill="#6A2C70"
  />
  <path
    fillRule="evenodd"
    clipRule="evenodd"
    d="M216.987 88.4195C213.766 110.232 191.285 112.645 187.29 90.9897C187.93 90.7096 188.392 90.1554 188.296 89.0817C188.273 84.363 189.736 79.3743 193.988 76.7501C198.381 74.0423 203.523 73.7734 208.607 73.8417C218.31 73.6104 218.105 81.7306 216.987 88.4195ZM183.77 78.9332C180.726 78.8049 176.873 78.9118 174.145 80.77C173.395 78.7478 171.446 76.5891 169.479 75.4339C176.796 75.6489 184.328 74.9276 191.701 74.3683C189.936 75.5725 188.294 77.3827 187.227 79.4741C186.236 78.9454 184.818 78.9954 183.77 78.9332ZM170.349 90.733C161.906 119.834 140.83 107.15 138.531 103.42C134.386 97.2487 133.607 82.2461 137.218 78.2344C142.385 74.6077 149.702 75.5419 155.806 75.4523C167.021 75.604 174.986 78.9638 170.349 90.733ZM226.957 77.3481C224.663 77.0476 222.212 76.9864 220.078 77.998C219.422 75.2037 217.36 72.8668 215.033 71.8378C214.751 71.4844 214.793 71.2949 213.831 71.3479C207.921 69.5692 201.308 70.5105 195.628 72.334C186.659 73.0909 177.248 73.6868 168.203 74.729C159.731 70.919 134.162 70.3607 132.571 79.7512C130.574 79.4517 127.17 77.8768 125.49 80.013C113.169 77.9216 100.44 80.829 88.0657 82.1228C84.9515 82.6974 83.3471 88.8871 86.8827 88.8015C88.8699 88.2616 86.8206 84.9477 89.498 84.6991C101.436 83.3931 113.114 81.5411 125.174 81.3241C124.754 83.4095 133.152 83.5449 133.275 82.3276C133.293 82.3367 133.312 82.3429 133.331 82.351C131.256 90.0932 133.128 101.235 136.878 106.036C142.131 112.323 155.321 114.127 161.17 110.081C168.714 106.349 176.562 87.6096 174.358 81.3832C178.359 80.1139 182.314 80.4949 186.466 81.1418C185.515 83.8302 183.874 90.4488 186.235 91.0233C185.801 104.164 197.746 112.363 208.757 106.972C218.286 102.494 221.618 88.3146 220.453 79.7095C221.639 82.0036 231.601 79.5047 226.957 77.3481Z"
    fill="#6A2C70"
  />
</svg>
